<?xml version="1.0" standalone="no"?>
<!DOCTYPE svg PUBLIC "-//W3C//DTD SVG 20010904//EN"
 "http://www.w3.org/TR/2001/REC-SVG-20010904/DTD/svg10.dtd">
<svg version="1.0" xmlns="http://www.w3.org/2000/svg"
 width="1280.000000pt" height="720.000000pt" viewBox="0 0 1280.000000 720.000000"
 preserveAspectRatio="xMidYMid meet">

<g transform="translate(0.000000,720.000000) scale(0.100000,-0.100000)"
fill="#000000" stroke="none">
<path d="M0 5865 l0 -1335 23 15 c18 11 68 16 213 20 187 6 189 5 165 -13
l-24 -19 49 -7 c126 -17 174 -29 163 -43 -9 -10 -5 -15 17 -23 16 -6 34 -18
40 -26 10 -13 17 -13 55 1 24 9 72 18 105 21 61 6 62 6 78 -27 9 -17 16 -33
16 -35 0 -2 -18 -8 -39 -14 -32 -8 -48 -7 -80 6 -26 10 -61 15 -96 12 -30 -1
-55 1 -55 6 0 13 -230 -2 -319 -21 -103 -21 -241 -15 -271 12 -12 11 -26 29
-31 40 -4 11 -8 -982 -8 -2207 l-1 -2228 2373 0 2372 0 -2 67 c-2 47 0 62 6
48 5 -11 10 -41 10 -68 l1 -47 2517 2 2516 3 13 35 c7 19 13 30 13 23 1 -6 -3
-23 -9 -37 l-10 -26 1500 0 1500 0 0 2929 0 2929 -82 58 c-127 90 -137 96
-233 154 -49 30 -124 76 -165 103 -103 67 -439 233 -595 294 -315 124 -644
201 -1055 248 -164 18 -170 18 -150 4 12 -8 10 -9 -10 -5 -14 3 -95 10 -180
16 -85 5 -204 15 -265 20 -60 6 -144 12 -185 14 -41 2 17 2 130 0 432 -9 757
-23 849 -39 419 -71 850 -214 1259 -419 195 -98 301 -161 625 -369 l57 -38 0
95 0 95 -147 99 c-155 104 -311 198 -453 275 -90 48 -386 179 -407 180 -7 0
-13 4 -13 8 0 4 -20 15 -45 25 -63 24 -50 28 16 5 157 -54 522 -225 644 -303
28 -17 97 -61 155 -97 58 -36 135 -87 173 -113 37 -26 69 -48 72 -48 3 0 5 42
5 94 l0 94 -93 60 c-51 32 -127 78 -170 102 -43 23 -76 45 -73 48 3 2 12 -1
21 -8 9 -7 18 -11 21 -8 13 13 -426 243 -616 323 -63 26 -182 72 -265 101 -82
29 -144 53 -137 53 25 1 309 -98 443 -155 270 -114 545 -263 756 -411 58 -40
107 -73 109 -73 2 0 4 194 4 430 l0 430 -357 0 -358 -1 148 -76 c81 -42 146
-78 143 -80 -2 -2 -36 12 -74 31 -39 20 -117 56 -172 81 l-102 45 -6014 0
-6014 0 0 -1335z m11055 1315 l30 -8 -30 0 c-16 0 -43 4 -60 8 l-30 8 30 0
c17 0 44 -4 60 -8z m566 -26 c269 -84 591 -228 829 -369 118 -71 150 -99 48
-42 -322 177 -583 295 -883 397 -164 57 -160 66 6 14z m-6321 1 c7 -8 9 -15 6
-15 -4 0 -14 7 -22 15 -9 8 -11 15 -6 15 5 0 15 -7 22 -15z m5817 9 c-3 -3
-12 -4 -19 -1 -8 3 -5 6 6 6 11 1 17 -2 13 -5z m-397 -25 c194 -19 607 -100
700 -138 40 -16 9 -12 -71 8 -302 79 -701 127 -1094 133 l-130 2 105 6 c127 8
348 3 490 -11z m1751 4 c13 -16 12 -17 -3 -4 -17 13 -22 21 -14 21 2 0 10 -8
17 -17z m-4241 -18 c0 -8 -9 -15 -20 -15 -11 0 -20 7 -20 15 0 8 9 15 20 15
11 0 20 -7 20 -15z m-2874 -27 l29 -33 -35 30 c-19 17 -37 31 -39 33 -2 1 0 2
5 2 6 0 23 -15 40 -32z m7172 -34 c-4 -3 -12 5 -18 18 -12 22 -12 22 6 6 10
-10 15 -20 12 -24z m-7102 -31 c-7 -7 -26 7 -26 19 0 6 6 6 15 -2 9 -7 13 -15
11 -17z m6016 12 c0 -5 -5 -11 -11 -13 -6 -2 -11 4 -11 13 0 9 5 15 11 13 6
-2 11 -8 11 -13z m268 -47 c10 -6 7 -7 -10 -2 -14 3 -32 11 -40 16 -10 6 -7 7
10 2 14 -3 32 -11 40 -16z m-1523 -24 c-3 -3 -12 -4 -19 -1 -8 3 -5 6 6 6 11
1 17 -2 13 -5z m623 -4 c0 -5 -4 -10 -10 -10 -5 0 -10 5 -10 10 0 6 5 10 10
10 6 0 10 -4 10 -10z m-5294 -27 c-7 -7 -26 7 -26 19 0 6 6 6 15 -2 9 -7 13
-15 11 -17z m5144 1 c280 -30 587 -94 810 -169 125 -42 110 -39 -65 9 -334 93
-692 143 -1078 150 -115 2 -211 7 -214 10 -8 7 32 10 118 6 44 -1 69 2 74 10
9 14 128 8 355 -16z m1160 16 c8 -5 11 -10 5 -10 -5 0 -17 5 -25 10 -8 5 -10
10 -5 10 6 0 17 -5 25 -10z m50 -20 c8 -5 11 -10 5 -10 -5 0 -17 5 -25 10 -8
5 -10 10 -5 10 6 0 17 -5 25 -10z m-6325 -20 c3 -5 1 -10 -4 -10 -6 0 -11 5
-11 10 0 6 2 10 4 10 3 0 8 -4 11 -10z m-4075 -40 c0 -5 -4 -10 -10 -10 -5 0
-10 5 -10 10 0 6 5 10 10 10 6 0 10 -4 10 -10z m11226 -37 c-4 -4 -14 1 -22
11 -22 31 -17 43 8 19 12 -13 18 -26 14 -30z m-1079 21 c-3 -3 -12 -4 -19 -1
-8 3 -5 6 6 6 11 1 17 -2 13 -5z m-5992 -24 c10 -11 14 -20 9 -20 -5 0 -15 9
-22 20 -7 11 -11 20 -9 20 2 0 12 -9 22 -20z m6032 14 c-3 -3 -12 -4 -19 -1
-8 3 -5 6 6 6 11 1 17 -2 13 -5z m54 -22 c-7 -2 -18 1 -23 6 -8 8 -4 9 13 5
13 -4 18 -8 10 -11z m-3614 -36 c-4 -9 -11 -16 -17 -16 -17 0 -24 31 -9 41 18
11 34 -5 26 -25z m3703 14 c13 -9 13 -10 0 -10 -8 0 -22 5 -30 10 -13 9 -13
10 0 10 8 0 22 -5 30 -10z m-6125 -20 c3 -5 1 -10 -4 -10 -6 0 -11 5 -11 10 0
6 2 10 4 10 3 0 8 -4 11 -10z m5815 -53 c58 -19 123 -44 145 -56 22 -12 31
-19 20 -16 -85 28 -281 97 -284 101 -10 9 20 2 119 -29z m-5744 -24 c-7 -7
-26 7 -26 19 0 6 6 6 15 -2 9 -7 13 -15 11 -17z m56 -50 c10 -9 18 -20 18 -25
0 -16 -18 -8 -34 17 -19 29 -11 33 16 8z m1718 -2 c0 -14 -18 -23 -30 -16 -6
4 -8 11 -5 16 8 12 35 12 35 0z m2000 -31 c0 -5 -4 -10 -10 -10 -5 0 -10 5
-10 10 0 6 5 10 10 10 6 0 10 -4 10 -10z m-3560 -155 c-1 -5 -12 4 -27 20 -14
17 -43 49 -64 72 -22 23 -39 45 -39 50 1 12 130 -130 130 -142z m5228 84 c51
-17 91 -33 89 -36 -5 -4 -187 54 -196 63 -10 10 21 2 107 -27z m-2038 -34 c0
-8 -4 -15 -10 -15 -5 0 -10 7 -10 15 0 8 5 15 10 15 6 0 10 -7 10 -15z m1803
-12 c-7 -2 -19 -2 -25 0 -7 3 -2 5 12 5 14 0 19 -2 13 -5z m453 -33 c59 -22
111 -40 116 -40 5 0 16 -7 24 -15 9 -8 13 -15 10 -15 -8 0 -260 101 -265 106
-10 10 16 1 115 -36z m-275 0 c188 -43 323 -81 474 -135 72 -26 168 -60 215
-76 82 -29 363 -159 356 -166 -1 -2 -52 20 -112 48 -60 28 -141 64 -180 79
-152 61 -527 181 -689 220 -212 52 -234 58 -214 59 9 1 77 -13 150 -29z
m-5079 -104 c10 -19 8 -18 -16 3 -14 14 -26 29 -26 34 0 13 29 -12 42 -37z
m1453 34 c3 -5 1 -10 -4 -10 -6 0 -11 5 -11 10 0 6 2 10 4 10 3 0 8 -4 11 -10z
m445 -30 c0 -19 -20 -27 -33 -13 -8 7 11 33 24 33 5 0 9 -9 9 -20z m-3405 -20
c-5 -8 -11 -8 -17 -2 -6 6 -7 16 -3 22 5 8 11 8 17 2 6 -6 7 -16 3 -22z m3535
10 c0 -5 -2 -10 -4 -10 -3 0 -8 5 -11 10 -3 6 -1 10 4 10 6 0 11 -4 11 -10z
m2253 3 c-7 -2 -19 -2 -25 0 -7 3 -2 5 12 5 14 0 19 -2 13 -5z m85 -10 c-10
-2 -26 -2 -35 0 -10 3 -2 5 17 5 19 0 27 -2 18 -5z m127 -13 l30 -8 -35 0
c-19 0 -48 4 -65 8 l-30 8 35 0 c19 0 49 -4 65 -8z m192 -35 c124 -27 225 -53
208 -54 -5 0 -91 17 -190 38 -99 22 -170 40 -158 40 13 1 76 -10 140 -24z
m-2877 0 c0 -8 -4 -15 -10 -15 -5 0 -10 7 -10 15 0 8 5 15 10 15 6 0 10 -7 10
-15z m-1705 -56 c11 -17 -1 -21 -15 -4 -8 9 -8 15 -2 15 6 0 14 -5 17 -11z
m30 -39 c3 -5 1 -10 -4 -10 -6 0 -11 5 -11 10 0 6 2 10 4 10 3 0 8 -4 11 -10z
m2923 -21 c-2 -6 -8 -10 -13 -10 -5 0 -11 4 -13 10 -2 6 4 11 13 11 9 0 15 -5
13 -11z m-2832 -97 c-5 -4 -17 8 -63 67 -30 39 -9 27 27 -15 23 -25 39 -49 36
-52z m970 77 c10 -17 -13 -36 -27 -22 -12 12 -4 33 11 33 5 0 12 -5 16 -11z
m-1122 -116 c4 -9 0 -23 -9 -32 -13 -14 -17 -14 -30 0 -19 19 -10 49 15 49 10
0 21 -8 24 -17z m194 -3 c7 -11 8 -20 2 -20 -5 0 -14 9 -20 20 -6 11 -7 20 -3
20 5 0 14 -9 21 -20z m5997 -55 c172 -102 480 -313 470 -323 -2 -2 -36 21 -77
51 -103 76 -232 161 -383 252 -129 78 -178 111 -120 82 17 -8 66 -36 110 -62z
m-1368 59 c-3 -3 -12 -4 -19 -1 -8 3 -5 6 6 6 11 1 17 -2 13 -5z m-2189 -15
c-2 -6 -8 -10 -13 -10 -5 0 -11 4 -13 10 -2 6 4 11 13 11 9 0 15 -5 13 -11z
m-5448 -19 c0 -5 -4 -10 -10 -10 -5 0 -10 5 -10 10 0 6 5 10 10 10 6 0 10 -4
10 -10z m3060 -42 c0 -6 -7 -5 -15 2 -8 7 -15 17 -15 22 0 6 7 5 15 -2 8 -7
15 -17 15 -22z m-4480 -3 c0 -8 -7 -15 -15 -15 -8 0 -15 7 -15 15 0 8 7 15 15
15 8 0 15 -7 15 -15z m9810 5 c8 -5 11 -10 5 -10 -5 0 -17 5 -25 10 -8 5 -10
10 -5 10 6 0 17 -5 25 -10z m200 -100 c144 -76 305 -173 330 -198 8 -8 -1 -6
-20 5 -232 137 -338 198 -407 232 -46 23 -83 43 -83 46 0 9 46 -13 180 -85z
m-5465 12 c-4 -4 -13 2 -20 13 -8 11 -19 25 -25 32 -25 30 -6 25 21 -5 17 -19
27 -37 24 -40z m575 20 c0 -13 -12 -22 -22 -16 -10 6 -1 24 13 24 5 0 9 -4 9
-8z m4650 -72 c8 -5 11 -10 5 -10 -5 0 -17 5 -25 10 -8 5 -10 10 -5 10 6 0 17
-5 25 -10z m122 -51 c140 -61 320 -154 432 -222 115 -69 306 -195 306 -202 0
-3 -51 29 -112 69 -184 120 -473 279 -663 363 -38 17 -67 32 -63 32 4 1 49
-17 100 -40z m-5218 -55 c4 -10 1 -14 -6 -12 -15 5 -23 28 -10 28 5 0 13 -7
16 -16z m-6504 -44 c8 -5 12 -11 10 -14 -8 -7 -60 6 -60 15 0 12 31 11 50 -1z
m78 -16 c12 -4 22 -10 22 -15 0 -10 -45 -2 -70 12 -12 7 -11 8 5 9 11 0 30 -3
43 -6z m12280 -117 c176 -122 180 -125 212 -161 15 -17 -14 0 -70 41 -52 38
-131 95 -175 126 -79 56 -152 115 -127 102 7 -4 79 -52 160 -108z m-12173 81
c7 -7 1 -8 -20 -4 -16 4 -34 12 -40 18 -7 7 -1 8 20 4 17 -4 35 -12 40 -18z
m45 -8 c0 -5 -7 -10 -15 -10 -8 0 -15 5 -15 10 0 6 7 10 15 10 8 0 15 -4 15
-10z m6370 -32 c0 -6 -7 -5 -15 2 -8 7 -15 17 -15 22 0 6 7 5 15 -2 8 -7 15
-17 15 -22z m-6330 12 c0 -5 -7 -7 -15 -4 -8 4 -15 8 -15 10 0 2 7 4 15 4 8 0
15 -4 15 -10z m80 -20 c12 -8 11 -10 -7 -10 -12 0 -25 5 -28 10 -8 13 15 13
35 0z m100 -36 c0 -2 -7 -4 -15 -4 -8 0 -15 4 -15 10 0 5 7 7 15 4 8 -4 15 -8
15 -10z m6212 -38 c10 -19 10 -20 -6 -7 -9 8 -22 24 -28 35 -10 19 -10 20 6 7
9 -8 22 -24 28 -35z m-6132 8 c12 -12 12 -14 -2 -14 -9 0 -20 5 -23 10 -3 6
-15 10 -26 10 -10 0 -19 5 -19 11 0 15 50 3 70 -17z m84 -35 c18 -17 1 -15
-34 4 -35 19 -35 19 -5 12 17 -3 34 -11 39 -16z m61 -29 c3 -5 2 -10 -4 -10
-5 0 -13 5 -16 10 -3 6 -2 10 4 10 5 0 13 -4 16 -10z m3195 -10 c0 -5 -4 -10
-10 -10 -5 0 -10 5 -10 10 0 6 5 10 10 10 6 0 10 -4 10 -10z m2866 -37 c-7 -7
-26 7 -26 19 0 6 6 6 15 -2 9 -7 13 -15 11 -17z m-5912 -18 c20 -8 36 -20 36
-25 0 -15 -16 -12 -30 5 -7 8 -18 15 -26 15 -7 0 -16 5 -19 10 -8 13 -4 13 39
-5z m6186 0 c0 -8 -4 -15 -10 -15 -5 0 -10 7 -10 15 0 8 5 15 10 15 6 0 10 -7
10 -15z m-325 -5 c-3 -5 -11 -10 -16 -10 -6 0 -7 5 -4 10 3 6 11 10 16 10 6 0
7 -4 4 -10z m105 -52 c0 -18 -17 -7 -29 19 -13 28 -13 28 8 9 12 -11 21 -23
21 -28z m5714 -7 c-2 -3 -12 3 -22 13 -16 17 -16 18 5 5 12 -7 20 -15 17 -18z
m136 4 c13 -14 21 -25 18 -25 -2 0 -15 11 -28 25 -13 14 -21 25 -18 25 2 0 15
-11 28 -25z m-11620 -51 c0 -2 -9 0 -20 6 -11 6 -20 13 -20 16 0 2 9 0 20 -6
11 -6 20 -13 20 -16z m5475 16 c-7 -11 -119 -70 -132 -70 -11 0 25 23 82 54
56 29 59 30 50 16z m6142 -63 c9 -15 -30 11 -67 44 l-35 31 48 -33 c27 -19 51
-37 54 -42z m-6102 53 c3 -5 1 -10 -4 -10 -6 0 -11 5 -11 10 0 6 2 10 4 10 3
0 8 -4 11 -10z m6175 -15 c13 -14 21 -25 18 -25 -2 0 -15 11 -28 25 -13 14
-21 25 -18 25 2 0 15 -11 28 -25z m-4455 -5 c0 -7 -6 -15 -12 -17 -8 -3 -13 4
-13 17 0 13 5 20 13 18 6 -3 12 -11 12 -18z m-1415 -11 c0 -6 -4 -7 -10 -4 -5
3 -10 11 -10 16 0 6 5 7 10 4 6 -3 10 -11 10 -16z m1065 1 c3 -5 1 -10 -4 -10
-6 0 -11 5 -11 10 0 6 2 10 4 10 3 0 8 -4 11 -10z m2275 -20 c0 -5 -4 -10 -10
-10 -5 0 -10 5 -10 10 0 6 5 10 10 10 6 0 10 -4 10 -10z m-8985 -51 c4 -5 18
-15 32 -20 14 -5 23 -12 19 -16 -7 -7 -76 28 -76 39 0 12 18 10 25 -3z m505
-9 c0 -5 -4 -10 -10 -10 -5 0 -10 5 -10 10 0 6 5 10 10 10 6 0 10 -4 10 -10z
m4555 1 c-49 -48 -742 -337 -761 -318 -3 3 5 8 18 12 66 20 424 167 573 236
176 81 185 85 170 70z m770 -12 c0 -8 -10 -15 -22 -17 -25 -4 -30 7 -11 26 15
15 33 10 33 -9z m-525 -49 c0 -13 -29 -32 -40 -25 -14 9 -13 32 3 38 15 5 37
-2 37 -13z m-5155 -26 l30 -25 -35 15 c-19 8 -36 19 -38 25 -6 18 11 12 43
-15z m3360 -13 c7 -12 -12 -24 -25 -16 -11 7 -4 25 10 25 5 0 11 -4 15 -9z
m2260 -1 c3 -5 1 -10 -4 -10 -6 0 -11 5 -11 10 0 6 2 10 4 10 3 0 8 -4 11 -10z
m-5865 -20 c0 -5 -4 -10 -10 -10 -5 0 -10 5 -10 10 0 6 5 10 10 10 6 0 10 -4
10 -10z m10433 4 c3 -4 2 -16 -4 -26 -13 -24 -35 -9 -26 16 7 17 19 21 30 10z
m-10103 -24 c14 -10 22 -21 19 -24 -2 -3 -18 6 -34 19 -35 29 -22 33 15 5z
m2400 16 c0 -3 -4 -8 -10 -11 -5 -3 -10 -1 -10 4 0 6 5 11 10 11 6 0 10 -2 10
-4z m1835 -40 c18 -13 17 -14 -9 -31 -32 -21 -41 -15 -32 20 7 29 14 31 41 11z
m-4146 -33 c23 -15 41 -30 41 -35 0 -13 -16 -9 -29 6 -6 8 -25 19 -41 26 -17
7 -30 16 -30 21 0 15 17 10 59 -18z m6311 2 c0 -8 -7 -15 -15 -15 -8 0 -15 7
-15 15 0 8 7 15 15 15 8 0 15 -7 15 -15z m-1261 -29 c-2 -2 -65 -31 -139 -63
-74 -32 -147 -70 -161 -83 -14 -14 -52 -43 -84 -65 -32 -22 -95 -69 -140 -106
-45 -36 -142 -107 -216 -159 -74 -51 -150 -107 -170 -124 -20 -17 -67 -56
-104 -86 -69 -56 -72 -70 -9 -50 19 7 37 10 40 8 2 -3 -28 -16 -67 -29 -68
-23 -76 -29 -207 -164 -74 -77 -142 -152 -151 -166 -9 -14 -49 -56 -90 -95
-52 -49 -69 -70 -57 -72 25 -5 8 -22 -22 -22 -17 -1 -43 -16 -72 -41 l-45 -41
35 6 c19 3 59 8 89 11 29 3 88 17 130 31 139 46 161 52 161 47 0 -18 -240 -93
-299 -93 -44 0 -52 -12 -35 -45 8 -15 13 -33 10 -39 -2 -6 -7 -2 -11 9 -25 64
-75 71 -151 23 -113 -72 -250 -152 -322 -187 -91 -45 -145 -63 -270 -91 -68
-15 -107 -30 -147 -57 -53 -34 -55 -37 -40 -57 8 -12 20 -32 26 -45 5 -14 24
-46 41 -72 27 -42 33 -47 54 -39 34 13 115 56 149 79 l30 21 -40 -6 c-37 -6
-39 -5 -20 9 11 8 58 31 104 50 92 40 106 50 266 182 121 100 151 121 120 85
-32 -38 -84 -83 -192 -169 -55 -43 -104 -84 -108 -90 -8 -13 147 42 181 64 23
15 124 56 124 50 0 -2 -28 -21 -62 -42 -59 -35 -189 -81 -249 -87 -14 -1 -46
-17 -70 -34 -44 -32 -207 -116 -244 -126 -15 -4 -25 3 -41 27 -11 17 -38 58
-58 90 -20 31 -39 57 -42 57 -2 0 -35 -15 -72 -34 -109 -54 -124 -52 -24 5
l92 52 -24 31 c-23 31 -24 31 -147 37 -134 6 -192 21 -263 65 -31 20 -45 36
-46 52 0 13 6 22 15 22 12 0 13 -4 6 -19 -9 -15 -5 -20 27 -29 41 -12 138 -35
222 -51 67 -14 333 -7 374 8 16 7 65 41 110 77 l81 66 -70 -66 c-40 -38 -63
-66 -54 -66 28 0 238 70 314 105 123 56 241 145 480 360 l30 27 -30 -18 c-107
-64 -125 -78 -125 -97 0 -15 -3 -17 -13 -9 -14 12 -14 12 -162 -68 -129 -70
-288 -123 -415 -139 -111 -15 -472 -16 -499 -2 -24 13 -26 22 -10 38 8 8 20 7
44 -3 50 -21 256 -29 371 -14 211 26 466 111 609 203 69 44 285 206 349 260
21 18 21 18 -4 6 -14 -7 -70 -40 -125 -74 -203 -125 -237 -143 -220 -115 9 15
2 13 -61 -15 -157 -70 -325 -100 -534 -97 -250 4 -272 17 -43 25 126 5 226 14
290 27 110 22 277 66 303 80 10 5 40 17 66 26 89 30 323 177 432 272 l27 23
-42 -20 c-108 -53 -326 -146 -400 -172 -205 -69 -618 -95 -803 -50 l-35 9 45
1 c25 1 131 2 235 1 119 0 226 5 285 14 113 18 315 68 414 103 83 29 241 110
259 132 7 9 8 12 1 8 -6 -4 -42 -9 -80 -12 -37 -3 -118 -18 -178 -34 -187 -48
-224 -53 -421 -57 -104 -2 -218 -6 -252 -7 -48 -2 -60 0 -52 9 8 9 -3 14 -43
18 -29 3 -102 11 -163 17 -60 7 -121 11 -135 10 -32 -3 -208 34 -325 67 -186
53 -106 54 140 3 141 -30 208 -40 385 -61 91 -10 173 -21 182 -25 29 -11 148
17 316 76 101 35 122 36 62 3 -30 -17 -37 -23 -20 -20 137 27 202 44 323 81
78 25 142 43 144 41 2 -1 -32 -16 -74 -33 -113 -44 -299 -92 -379 -97 -38 -2
-103 -15 -144 -29 l-75 -25 115 5 c192 7 400 45 602 109 115 36 286 117 335
158 17 14 34 26 38 26 4 0 27 18 51 40 24 22 41 40 38 40 -5 0 -193 -72 -353
-136 -46 -18 -87 -31 -92 -28 -4 2 -54 -5 -110 -16 -56 -12 -111 -19 -123 -17
-12 1 5 9 39 16 250 54 277 63 432 142 153 79 203 93 77 23 -36 -20 -63 -39
-59 -42 9 -10 414 201 462 241 26 21 59 41 74 44 27 5 28 6 12 32 -24 37 -23
37 -31 25 -17 -26 -222 -164 -222 -149 0 8 134 112 165 128 38 20 19 21 -54 3
-153 -40 -478 -85 -465 -65 2 4 30 9 61 12 101 9 264 37 395 68 134 32 212 71
228 114 9 24 29 35 62 35 34 0 15 -23 -53 -63 -74 -44 -55 -42 91 10 116 40
190 74 190 84 0 5 10 14 23 20 20 11 21 11 8 -4 -20 -25 0 -22 84 12 66 27 93
36 84 27z m531 -81 c0 -5 -11 4 -25 20 -13 17 -24 35 -24 40 0 6 11 -3 24 -20
14 -16 25 -34 25 -40z m-5450 16 c14 -11 22 -22 19 -26 -9 -9 -78 38 -79 53 0
14 18 6 60 -27z m5870 -16 c0 -8 -4 -15 -9 -15 -13 0 -22 16 -14 24 11 11 23
6 23 -9z m974 -1 c23 -9 1 -34 -30 -34 -26 0 -30 10 -12 28 14 14 20 15 42 6z
m-6799 -24 c3 -5 1 -10 -4 -10 -6 0 -11 5 -11 10 0 6 2 10 4 10 3 0 8 -4 11
-10z m5435 -21 c0 -6 -4 -7 -10 -4 -5 3 -10 11 -10 16 0 6 5 7 10 4 6 -3 10
-11 10 -16z m-1780 -20 c-36 -16 -72 -33 -80 -39 -78 -50 -396 -197 -406 -187
-3 2 28 19 68 37 165 75 328 153 324 157 -2 2 -37 -5 -77 -16 -95 -26 -265
-61 -293 -60 -11 0 44 15 124 34 164 37 327 82 350 96 8 4 24 8 35 8 11 0 -9
-14 -45 -30z m-3605 10 c12 -19 -5 -23 -22 -6 -16 16 -16 17 -1 17 9 0 20 -5
23 -11z m5449 -79 c21 -34 35 -64 32 -67 -7 -8 -4 -11 -49 58 -35 53 -48 87
-29 75 5 -3 26 -33 46 -66z m-5406 42 c2 -7 -2 -10 -12 -6 -9 3 -16 11 -16 16
0 13 23 5 28 -10z m3552 -22 c0 -5 -2 -10 -4 -10 -3 0 -8 5 -11 10 -3 6 -1 10
4 10 6 0 11 -4 11 -10z m2827 4 c-3 -3 -12 -4 -19 -1 -8 3 -5 6 6 6 11 1 17
-2 13 -5z m-6269 -64 c40 -33 75 -60 78 -60 6 0 160 -126 192 -157 7 -7 33
-29 58 -49 24 -20 43 -39 40 -41 -2 -3 -37 22 -78 54 -40 33 -107 86 -148 119
-41 32 -85 68 -97 79 -12 11 -44 36 -72 55 -47 33 -71 60 -52 60 4 0 40 -27
79 -60z m6192 43 c-70 -23 -352 -83 -385 -82 -16 0 38 16 120 34 83 18 177 40
210 48 78 19 113 19 55 0z m-650 -3 c0 -5 -4 -10 -10 -10 -5 0 -10 5 -10 10 0
6 5 10 10 10 6 0 10 -4 10 -10z m1380 -10 c0 -5 -2 -10 -4 -10 -3 0 -8 5 -11
10 -3 6 -1 10 4 10 6 0 11 -4 11 -10z m-8730 -30 c0 -5 -4 -10 -10 -10 -5 0
-10 5 -10 10 0 6 5 10 10 10 6 0 10 -4 10 -10z m4767 -6 c-3 -3 -12 -4 -19 -1
-8 3 -5 6 6 6 11 1 17 -2 13 -5z m-197 -35 c-25 -4 -56 -7 -70 -7 l-25 0 25 8
c14 4 45 8 70 8 l45 -1 -45 -8z m2160 2 c0 -9 -41 -23 -49 -16 -3 4 28 20 47
24 1 1 2 -3 2 -8z m847 -7 c-3 -3 -12 -4 -19 -1 -8 3 -5 6 6 6 11 1 17 -2 13
-5z m-265 -19 c73 4 131 5 128 2 -7 -7 -242 -29 -285 -27 -16 1 -73 5 -125 9
l-95 8 108 2 c71 1 107 5 107 12 0 8 4 8 15 -1 11 -9 49 -10 147 -5z m-2039
-2 c-7 -2 -21 -2 -30 0 -10 3 -4 5 12 5 17 0 24 -2 18 -5z m1635 0 c-10 -2
-28 -2 -40 0 -13 2 -5 4 17 4 22 1 32 -1 23 -4z m-298 -29 c0 -15 -308 -146
-370 -158 -19 -4 52 29 158 73 107 44 196 82 199 85 8 8 13 8 13 0z m-3110
-14 c0 -5 -4 -10 -10 -10 -5 0 -10 5 -10 10 0 6 5 10 10 10 6 0 10 -4 10 -10z
m8605 0 c3 -5 1 -10 -4 -10 -6 0 -11 5 -11 10 0 6 2 10 4 10 3 0 8 -4 11 -10z
m-7685 -30 c0 -5 -7 -10 -15 -10 -8 0 -15 5 -15 10 0 6 7 10 15 10 8 0 15 -4
15 -10z m1182 -26 c-30 -20 -56 -34 -58 -32 -5 6 87 67 101 68 5 0 -14 -16
-43 -36z m2483 16 c3 -5 -1 -10 -10 -10 -9 0 -13 5 -10 10 3 6 8 10 10 10 2 0
7 -4 10 -10z m-3416 -15 c-65 -35 -483 -164 -495 -152 -2 2 53 21 124 41 70
20 184 56 253 81 128 45 163 54 118 30z m2356 -45 c3 -5 1 -10 -4 -10 -6 0
-11 5 -11 10 0 6 2 10 4 10 3 0 8 -4 11 -10z m-6428 -16 c2 -7 -6 -10 -22 -7
-14 3 -25 10 -25 15 0 13 43 6 47 -8z m4533 -52 c-73 -58 -404 -231 -417 -218
-2 2 50 30 116 64 66 33 150 80 188 104 121 77 179 102 113 50z m-4215 -1 c3
-5 1 -12 -4 -15 -13 -8 -42 4 -35 15 7 12 31 12 39 0z m9325 -1 c0 -5 -4 -10
-10 -10 -5 0 -10 5 -10 10 0 6 5 10 10 10 6 0 10 -4 10 -10z m-4365 -25 c-36
-22 -38 -24 -15 -25 14 0 79 11 144 25 66 14 121 23 124 21 9 -10 -156 -48
-279 -65 -37 -5 -98 -24 -135 -41 -76 -35 -145 -62 -150 -57 -2 1 52 29 119
60 67 32 142 69 167 82 59 32 76 32 25 0z m1976 -18 c-13 -13 -26 -3 -16 12 3
6 11 8 17 5 6 -4 6 -10 -1 -17z m-5528 -103 c53 -47 97 -88 97 -91 0 -7 -15 5
-110 86 -99 84 -106 91 -94 91 5 0 53 -39 107 -86z m3380 69 c-13 -2 -33 -2
-45 0 -13 2 -3 4 22 4 25 0 35 -2 23 -4z m-1858 -32 c-17 -4 -39 -12 -49 -18
-19 -11 -56 -6 -56 6 0 17 16 21 74 20 48 -1 55 -3 31 -8z m-550 -61 c11 -18
-26 -23 -43 -6 -15 15 -14 16 10 16 15 0 30 -5 33 -10z m-2465 -10 c0 -5 -4
-10 -10 -10 -5 0 -10 5 -10 10 0 6 5 10 10 10 6 0 10 -4 10 -10z m11570 6 c0
-3 -4 -8 -10 -11 -5 -3 -10 -1 -10 4 0 6 5 11 10 11 6 0 10 -2 10 -4z m-12050
-42 c0 -8 -9 -14 -20 -14 -22 0 -28 26 -7 33 16 6 27 -1 27 -19z m1185 13 c25
-19 11 -37 -29 -37 -35 0 -62 21 -51 40 9 14 58 13 80 -3z m2725 -13 c0 -8 -5
-12 -10 -9 -6 4 -8 11 -5 16 9 14 15 11 15 -7z m-1685 -144 c39 -30 90 -73
115 -96 71 -66 104 -95 125 -113 24 -19 50 -51 42 -51 -3 0 -34 24 -68 53 -35
28 -89 74 -122 100 -33 27 -93 81 -134 120 -41 40 -79 74 -84 75 -5 2 -9 9 -9
15 0 6 15 -3 33 -19 17 -17 64 -55 102 -84z m5067 -15 c0 -5 -5 -11 -11 -13
-6 -2 -11 4 -11 13 0 9 5 15 11 13 6 -2 11 -8 11 -13z m208 -5 c0 -5 -5 -10
-11 -10 -5 0 -7 5 -4 10 3 6 8 10 11 10 2 0 4 -4 4 -10z m-4331 -59 c40 -6 83
-17 95 -24 20 -11 20 -12 -9 -15 -60 -7 -181 5 -220 23 l-40 17 35 12 c19 7
42 9 50 5 8 -4 48 -12 89 -18z m2151 25 c0 -3 -4 -8 -10 -11 -5 -3 -10 -1 -10
4 0 6 5 11 10 11 6 0 10 -2 10 -4z m445 -22 c-36 -29 -233 -129 -241 -121 -3
2 46 31 108 62 62 32 122 64 133 71 32 23 32 15 0 -12z m1645 6 c0 -5 -4 -10
-10 -10 -5 0 -10 5 -10 10 0 6 5 10 10 10 6 0 10 -4 10 -10z m-4940 -10 c0 -5
-4 -10 -10 -10 -5 0 -10 5 -10 10 0 6 5 10 10 10 6 0 10 -4 10 -10z m2902 -22
c-7 -7 -12 -22 -12 -35 0 -13 -4 -23 -10 -23 -5 0 -10 5 -10 10 0 17 -18 11
-74 -25 -108 -69 -352 -173 -423 -180 -26 -3 -54 -7 -64 -10 -9 -3 -20 -2 -23
3 -2 4 39 18 92 30 79 18 113 32 187 78 50 31 95 59 100 62 6 3 4 -2 -4 -11
-7 -9 -29 -26 -48 -38 -19 -12 -32 -24 -29 -26 6 -6 148 70 251 134 72 44 88
52 67 31z m2198 -18 c0 -5 -7 -10 -15 -10 -8 0 -15 5 -15 10 0 6 7 10 15 10 8
0 15 -4 15 -10z m-5884 -51 c10 -17 -13 -36 -27 -22 -12 12 -4 33 11 33 5 0
12 -5 16 -11z m1086 -34 c0 -5 -5 -11 -11 -13 -6 -2 -11 4 -11 13 0 9 5 15 11
13 6 -2 11 -8 11 -13z m6098 -5 c0 -5 -4 -10 -10 -10 -5 0 -10 5 -10 10 0 6 5
10 10 10 6 0 10 -4 10 -10z m-4065 -9 c7 -12 -12 -24 -25 -16 -11 7 -4 25 10
25 5 0 11 -4 15 -9z m639 -12 c-53 -24 -172 -49 -227 -48 -35 1 -30 3 33 15
41 7 104 22 140 33 83 25 107 25 54 0z m-4994 -13 c0 -3 -4 -8 -10 -11 -5 -3
-10 -1 -10 4 0 6 5 11 10 11 6 0 10 -2 10 -4z m4445 -26 c-3 -5 -10 -10 -16
-10 -5 0 -9 5 -9 10 0 6 7 10 16 10 8 0 12 -4 9 -10z m-2288 -56 c21 -14 51
-37 67 -51 28 -25 28 -27 10 -40 -23 -17 -38 -12 -43 13 -2 10 -24 38 -49 62
-52 47 -43 56 15 16z m640 -6 c13 -12 23 -25 23 -30 0 -17 -17 -7 -38 22 -26
35 -18 39 15 8z m1093 16 c0 -19 -263 -114 -335 -120 -57 -4 -67 -8 102 43 45
13 113 38 150 53 70 30 83 34 83 24z m5820 -76 c0 -14 -18 -9 -24 8 -11 28 -6
39 9 20 8 -11 15 -23 15 -28z m-7571 -12 c9 -11 10 -20 1 -36 -13 -25 -43 -23
-48 3 -8 42 23 63 47 33z m6251 4 c0 -5 -4 -10 -10 -10 -5 0 -10 5 -10 10 0 6
5 10 10 10 6 0 10 -4 10 -10z m-6090 -42 c17 -12 30 -26 30 -31 0 -6 -8 -3
-17 5 -10 8 -26 18 -35 21 -10 4 -18 11 -18 17 0 15 7 13 40 -12z m7437 -80
c-3 -8 -6 -5 -6 6 -1 11 2 17 5 13 3 -3 4 -12 1 -19z m17 -33 c3 -8 1 -15 -4
-15 -6 0 -10 7 -10 15 0 8 2 15 4 15 2 0 6 -7 10 -15z m-5647 -27 c6 -7 13
-23 16 -36 5 -19 3 -21 -9 -11 -12 10 -21 7 -47 -18 -56 -53 -187 -143 -187
-129 0 2 50 41 110 86 61 45 110 85 110 89 0 4 -5 12 -12 19 -8 8 -8 12 -1 12
6 0 15 -6 20 -12z m5660 -40 c-3 -8 -6 -5 -6 6 -1 11 2 17 5 13 3 -3 4 -12 1
-19z m1863 -48 c0 -5 -4 -10 -10 -10 -5 0 -10 5 -10 10 0 6 5 10 10 10 6 0 10
-4 10 -10z m-7475 -10 c3 -5 1 -10 -4 -10 -6 0 -11 5 -11 10 0 6 2 10 4 10 3
0 8 -4 11 -10z m-2625 -25 c0 -8 -9 -15 -20 -15 -20 0 -26 11 -13 23 12 13 33
7 33 -8z m1500 -30 c0 -8 -2 -15 -4 -15 -2 0 -6 7 -10 15 -3 8 -1 15 4 15 6 0
10 -7 10 -15z m1638 -7 c14 -29 25 -68 19 -68 -5 0 -47 77 -47 85 0 14 18 2
28 -17z m-5528 -88 c13 -8 13 -10 -2 -10 -9 0 -20 5 -23 10 -8 13 5 13 25 0z
m5154 -108 c51 -94 70 -141 47 -117 -14 15 -111 204 -111 217 0 16 1 15 64
-100z m422 81 c4 -16 14 -38 22 -51 12 -19 11 -44 -2 -31 -12 12 -44 109 -36
109 5 0 13 -12 16 -27z m-5477 -3 c53 -14 114 -40 108 -46 -5 -5 -92 21 -119
36 -10 6 -24 10 -32 10 -8 0 -18 5 -22 12 -5 7 -2 9 9 5 9 -3 34 -11 56 -17z
m4475 -42 c-54 -61 -184 -184 -224 -210 -39 -26 -36 -22 20 28 36 32 99 91
140 131 74 72 101 93 64 51z m-4236 -38 c39 -13 72 -27 72 -31 0 -4 -28 2 -62
13 -35 10 -78 24 -95 29 -18 6 -33 14 -33 19 0 9 7 7 118 -30z m3392 -64 c-31
-16 -88 -31 -77 -19 9 8 73 30 92 32 6 0 -1 -6 -15 -13z m-3114 -26 c15 -6 25
-13 22 -15 -3 -3 -22 1 -44 9 -21 8 -31 15 -22 15 9 1 29 -4 44 -9z m139 -39
c88 -24 127 -39 102 -40 -28 -1 -207 52 -207 61 0 5 8 7 18 4 9 -3 49 -14 87
-25z m2050 -61 c0 -22 -29 -18 -33 3 -3 14 1 18 15 15 10 -2 18 -10 18 -18z
m1476 -34 c-12 -13 -38 -32 -57 -42 -18 -10 -34 -22 -34 -26 0 -5 -6 -8 -14
-8 -40 0 -110 -46 -186 -125 -46 -46 -86 -83 -88 -80 -3 2 32 44 78 92 61 65
95 93 129 105 25 10 47 22 49 28 2 5 9 10 15 10 7 0 37 15 67 34 67 42 70 42
41 12z m-121 -23 c0 -20 -16 -8 -23 17 -4 17 -3 19 9 9 8 -6 14 -18 14 -26z
m1582 -77 c-3 -6 -10 1 -15 15 -5 13 -16 38 -23 56 -24 54 -14 50 15 -7 16
-30 26 -59 23 -64z m5025 82 c-3 -8 -6 -5 -6 6 -1 11 2 17 5 13 3 -3 4 -12 1
-19z m33 -120 c0 -5 -4 -8 -8 -8 -10 0 -31 98 -23 106 5 4 30 -77 31 -98z
m-6560 -11 l21 -42 -30 35 c-16 19 -32 43 -35 53 -8 31 20 1 44 -46z m-3358
28 c0 -5 -5 -11 -11 -13 -6 -2 -11 4 -11 13 0 9 5 15 11 13 6 -2 11 -8 11 -13z
m2666 -22 c5 -17 -26 -29 -40 -15 -6 6 -7 15 -3 22 9 14 37 9 43 -7z m2216 1
c3 -8 2 -12 -4 -9 -6 3 -10 10 -10 16 0 14 7 11 14 -7z m-4104 -24 c0 -5 -4
-10 -10 -10 -5 0 -10 5 -10 10 0 6 5 10 10 10 6 0 10 -4 10 -10z m4135 -48
c-9 -9 -25 11 -25 31 1 21 1 21 15 -3 7 -14 12 -27 10 -28z m105 12 c0 -8 -7
-14 -15 -14 -15 0 -21 21 -9 33 10 9 24 -2 24 -19z m-1610 -20 c0 -8 -4 -13
-9 -11 -5 1 -45 -36 -90 -83 -45 -47 -78 -76 -72 -65 5 11 37 47 71 80 34 33
66 70 71 83 9 24 29 22 29 -4z m6520 11 c0 -8 -2 -15 -4 -15 -2 0 -6 7 -10 15
-3 8 -1 15 4 15 6 0 10 -7 10 -15z m-4982 -83 c4 -23 -4 -27 -26 -14 -15 10
-5 45 12 39 6 -2 12 -13 14 -25z m5002 -14 c0 -19 -2 -20 -10 -8 -13 19 -13
30 0 30 6 0 10 -10 10 -22z m-9550 -3 c0 -8 -7 -15 -15 -15 -8 0 -15 7 -15 15
0 8 7 15 15 15 8 0 15 -7 15 -15z m2552 -35 c-30 -26 -81 -62 -115 -79 -34
-18 -51 -24 -37 -14 115 84 196 141 200 142 3 0 -19 -22 -48 -49z m553 -17
c-37 -50 -107 -123 -118 -123 -5 0 24 36 64 80 78 86 98 102 54 43z m-1605
-43 c0 -5 -4 -10 -10 -10 -5 0 -10 5 -10 10 0 6 5 10 10 10 6 0 10 -4 10 -10z
m1310 -8 c0 -12 -107 -90 -155 -113 -34 -17 -36 -17 -15 -2 13 10 56 41 95 70
78 58 75 56 75 45z m-2530 -12 c0 -5 -2 -10 -4 -10 -3 0 -8 5 -11 10 -3 6 -1
10 4 10 6 0 11 -4 11 -10z m4060 -30 c0 -5 -4 -10 -10 -10 -5 0 -10 5 -10 10
0 6 5 10 10 10 6 0 10 -4 10 -10z m-4600 -10 c0 -5 -2 -10 -4 -10 -3 0 -8 5
-11 10 -3 6 -1 10 4 10 6 0 11 -4 11 -10z m3225 -50 c-4 -6 -42 -36 -85 -66
-44 -30 -93 -73 -110 -95 -40 -50 -60 -52 -23 -1 41 55 107 128 100 109 -10
-26 3 -20 63 27 53 42 70 50 55 26z m697 5 c0 -5 -5 -11 -11 -13 -6 -2 -11 4
-11 13 0 9 5 15 11 13 6 -2 11 -8 11 -13z m-117 -66 c0 -7 -8 -15 -17 -17 -18
-3 -25 18 -11 32 10 10 28 1 28 -15z m-3477 -184 c15 -14 22 -25 16 -25 -6 0
-21 11 -34 25 -13 14 -20 25 -16 25 4 0 19 -11 34 -25z m2598 -24 c-26 -26
-66 -58 -89 -71 l-42 -22 40 33 c22 19 58 51 80 71 58 55 67 46 11 -11z
m-2466 -93 c0 -4 6 -8 13 -8 6 -1 35 -22 62 -47 55 -51 46 -48 -30 8 -55 40
-105 85 -105 94 0 3 14 -4 30 -17 17 -12 30 -25 30 -30z m2220 -58 c0 -5 -9
-10 -21 -10 -11 0 -17 5 -14 10 3 6 13 10 21 10 8 0 14 -4 14 -10z m-2000
-100 c25 -16 51 -30 58 -30 6 0 12 -4 12 -8 0 -5 12 -14 26 -21 15 -6 24 -15
20 -18 -3 -4 -18 0 -34 7 -31 16 -142 91 -142 96 0 10 19 1 60 -26z m4770 -40
c0 -5 -4 -10 -10 -10 -5 0 -10 5 -10 10 0 6 5 10 10 10 6 0 10 -4 10 -10z
m-3950 -30 c0 -5 -4 -10 -9 -10 -6 0 -13 5 -16 10 -3 6 1 10 9 10 9 0 16 -4
16 -10z m2640 -20 c0 -11 -7 -20 -15 -20 -8 0 -15 9 -15 20 0 11 7 20 15 20 8
0 15 -9 15 -20z m-2602 -38 c6 -18 -15 -14 -22 4 -4 10 -1 14 6 12 6 -2 14
-10 16 -16z m-1838 -32 c0 -5 -4 -10 -10 -10 -5 0 -10 5 -10 10 0 6 5 10 10
10 6 0 10 -4 10 -10z m1860 0 c0 -5 -2 -10 -4 -10 -3 0 -8 5 -11 10 -3 6 -1
10 4 10 6 0 11 -4 11 -10z m2450 -15 c0 -8 -7 -15 -15 -15 -16 0 -20 12 -8 23
11 12 23 8 23 -8z m-2402 -48 c31 -47 27 -54 -8 -14 -30 35 -36 47 -22 47 4 0
17 -15 30 -33z m122 -149 c27 -29 45 -54 40 -56 -11 -4 -23 7 -68 66 -46 58
-33 53 28 -10z m510 -46 c0 -13 -12 -22 -22 -16 -10 6 -1 24 13 24 5 0 9 -4 9
-8z m689 -137 c0 -17 -2 -16 -11 5 -7 14 -20 43 -30 64 -10 22 -18 47 -17 55
1 23 58 -100 58 -124z m70 -152 c17 -36 30 -71 27 -77 -4 -11 -66 115 -66 134
0 21 9 8 39 -57z m156 -223 c0 -22 -29 -18 -33 3 -3 14 1 18 15 15 10 -2 18
-10 18 -18z m7215 -110 c0 -5 -4 -10 -10 -10 -5 0 -10 5 -10 10 0 6 5 10 10
10 6 0 10 -4 10 -10z m-14 -98 c-11 -10 -14 3 -8 33 l7 30 3 -28 c2 -16 1 -31
-2 -35z m-11 -79 c-3 -24 -9 -42 -12 -40 -3 3 -2 30 2 59 5 29 10 47 13 40 2
-7 1 -34 -3 -59z m-6757 -125 c-6 -18 -28 -21 -28 -4 0 9 7 16 16 16 9 0 14
-5 12 -12z m6712 -158 c0 -5 -4 -10 -10 -10 -5 0 -10 5 -10 10 0 6 5 10 10 10
6 0 10 -4 10 -10z m-20 -81 c-10 -33 -20 -50 -20 -32 0 28 13 72 20 68 5 -3 4
-19 0 -36z m-6647 -74 c4 -44 2 -64 -3 -54 -12 20 -29 127 -22 134 12 12 20
-14 25 -80z"/>
<path d="M6195 4792 c-76 -26 -80 -28 -70 -49 5 -13 12 -23 16 -23 10 0 126
77 133 89 4 6 6 11 4 10 -2 0 -39 -13 -83 -27z"/>
<path d="M5440 4241 c-36 -15 -96 -40 -133 -56 -37 -15 -66 -30 -63 -32 9 -10
123 20 166 43 43 23 111 73 100 73 -3 0 -34 -12 -70 -28z"/>
<path d="M4051 3230 c10 -28 12 -29 37 -16 15 8 36 21 47 30 19 14 16 15 -37
16 l-57 0 10 -30z"/>
<path d="M4404 3124 c-18 -14 -18 -14 6 -3 31 14 36 19 24 19 -6 0 -19 -7 -30
-16z"/>
</g>
</svg>
