<svg id="Capa_1" data-name="Capa 1" xmlns="http://www.w3.org/2000/svg" viewBox="0 0 532.39 448.39"><defs><style>.cls-1{fill:#edb400;}.cls-2{font-size:56px;font-family:Revamped, Revamped;}.cls-3{letter-spacing:-0.03em;}.cls-4{letter-spacing:-0.01em;}.cls-5{font-size:74px;font-family:Microsoft-Yi-Baiti, Microsoft Yi Baiti;}</style></defs><title>LOGO EAGLE CLUB</title><path class="cls-1" d="M164.7,196.28a239.1,239.1,0,0,1,172.5-71.5l-23-8.5,16-.62c25.08-3.57,44,.33,55,3.62s33.75,10.1,35.5,23.5c.16,1.26.63,6.33-2.5,9.5-9.54,9.66-43.24-7.57-47-9.5-10.25-5.24-14.31-9-23-9.5s-16,2.65-21,5.5c4.75.86,8.66,1.78,11.5,2.5,8.46,2.17,9.75,3.24,10.5,4,3,3.06,1.57,5.62,5,9.5,2.4,2.72,6.21,5,7.5,4,1.67-1.28-1.34-7.66-1.5-8a59.84,59.84,0,0,0,7.5,2.5,61.41,61.41,0,0,0,16,2c-1.94,6.38-6.17,11-10.5,12.5a20.34,20.34,0,0,1-9.55.58c-.23,0-.51-.09-.83-.17-8.31-1.87-13.08-8.69-14-10-.26-.38-.67-1-1.13-1.87-4.17-2.19-5.51-2-6-1.5-1.34,1.39,1.56,7.41,6,11.5,5.16,4.76,10.74,5.38,10.5,6.5s-6.41,1-11.85.78c-2.15-.07-3.93-.19-5.15-.28a53.8,53.8,0,0,0,22.5,5c6.58,0,17.09,0,25.5-7.5a29.49,29.49,0,0,0,8-12,36.09,36.09,0,0,0,8.5,3.5c4.58,1.24,11.93,3.22,18.5-.5a18.2,18.2,0,0,0,7.5-8.5,33.66,33.66,0,0,1,18,9.5c6,6.31,11.94,17.83,8,24-3.62,5.67-14,4.48-28.5,3-37.25-3.81-45.14-6.75-62-5.5-8.52.64-22.93,1.71-36.63,9.88-27.31,16.29-33.45,49.8-34.86,59.33,2-5.85,10.52-28.93,34.5-41a66.82,66.82,0,0,1,28-7A197.85,197.85,0,0,0,280.71,348q-11.5-25-23-50c5.41-11.9,11.54-24.28,18.5-37a565.88,565.88,0,0,1,43-67,65,65,0,0,0-52,20,35.72,35.72,0,0,1,18-7,34.56,34.56,0,0,1,10.33.64q-23.76,27.59-47.84,58.15-12.67,16.13-24.5,32,32,56,64,112,26-42.75,52-85.5c-.6-3.54-8.25-54,30.5-89.5,36.94-33.85,83.67-24.45,88-23.5a27.95,27.95,0,0,1,8,24,41.43,41.43,0,0,0,16.5-17c9.41-18.64-.32-37.69-2-41-11.1-21.73-34.2-26.83-37.5-27.5a132.82,132.82,0,0,0-21-18.5c-40.32-28.5-86.16-26.32-114-25a264.91,264.91,0,0,0-85,18.5l27.5,2.5a314.08,314.08,0,0,0-76.5,40.5q-23.5-42.5-47-85l320.5,1.5q-10.76,19.5-21.5,39a60.55,60.55,0,0,1,8.5,6.5,59.49,59.49,0,0,1,8,9l46.5-76-403-2.5Q125.2,128.29,164.7,196.28Z"/><text class="cls-2" transform="translate(33 405.58)">E<tspan class="cls-3" x="43.75" y="0">A</tspan><tspan x="85.59" y="0">G</tspan><tspan class="cls-4" x="132.07" y="0">L</tspan><tspan x="175.19" y="0">E</tspan></text><text class="cls-5" transform="translate(327.7 406.89)">CLUB</text></svg>