<svg id="Capa_1" data-name="Capa 1" xmlns="http://www.w3.org/2000/svg" xmlns:xlink="http://www.w3.org/1999/xlink" viewBox="0 0 511.09 435.99"><defs><style>.cls-1{fill:url(#Nueva_muestra_de_degradado_1);}.cls-2{font-size:56px;font-family:Revamped, Revamped;}.cls-3{letter-spacing:-0.03em;}.cls-4{letter-spacing:-0.01em;}.cls-5{font-size:74px;font-family:Microsoft-Yi-Baiti, Microsoft Yi Baiti;}</style><linearGradient id="Nueva_muestra_de_degradado_1" x1="83.59" y1="220.6" x2="486.59" y2="220.6" gradientUnits="userSpaceOnUse"><stop offset="0" stop-color="#6a5a38"/><stop offset="0.21" stop-color="#e99600"/><stop offset="0.4" stop-color="#6a5a38"/><stop offset="0.59" stop-color="#ffd815"/><stop offset="0.79" stop-color="#6a5a38"/><stop offset="1" stop-color="#e99c00"/></linearGradient></defs><title>LOGO EAGLE CLUB</title><path class="cls-1" d="M162.59,181.85a239.1,239.1,0,0,1,172.5-71.5l-23-8.5,16-.62c25.08-3.57,44,.33,55,3.62s33.74,10.1,35.5,23.5c.16,1.26.63,6.33-2.5,9.5-9.54,9.66-43.24-7.57-47-9.5-10.25-5.24-14.31-9-23-9.5s-16,2.65-21,5.5c4.75.86,8.66,1.78,11.5,2.5,8.46,2.17,9.75,3.24,10.5,4,3,3.06,1.57,5.62,5,9.5,2.4,2.72,6.21,5,7.5,4,1.66-1.28-1.34-7.66-1.5-8a59.84,59.84,0,0,0,7.5,2.5,61.41,61.41,0,0,0,16,2c-1.94,6.38-6.18,11-10.5,12.5a20.34,20.34,0,0,1-9.55.58c-.23,0-.51-.09-.84-.17-8.31-1.87-13.07-8.69-14-10-.26-.38-.67-1-1.13-1.87-4.17-2.19-5.52-2-6-1.5-1.34,1.39,1.56,7.41,6,11.5,5.15,4.76,10.73,5.38,10.5,6.5s-6.41,1-11.86.78c-2.14-.07-3.92-.19-5.14-.28a53.8,53.8,0,0,0,22.5,5c6.58,0,17.09,0,25.5-7.5a29.49,29.49,0,0,0,8-12,36.52,36.52,0,0,0,8.5,3.5c4.58,1.24,11.92,3.22,18.5-.5a18.31,18.31,0,0,0,7.5-8.5,33.66,33.66,0,0,1,18,9.5c6,6.31,11.93,17.83,8,24-3.62,5.67-14,4.48-28.5,3-37.25-3.81-45.14-6.75-62-5.5-8.53.64-22.93,1.71-36.63,9.88C301.15,196,295,229.53,293.6,239.06c2-5.85,10.52-28.93,34.5-41a66.82,66.82,0,0,1,28-7,197.85,197.85,0,0,0-77.5,142.5q-11.5-25-23-50c5.41-11.9,11.54-24.28,18.5-37a565.88,565.88,0,0,1,43-67,65,65,0,0,0-52,20,35.72,35.72,0,0,1,18-7,34.56,34.56,0,0,1,10.33.64q-23.78,27.59-47.84,58.15-12.68,16.13-24.5,32,32,56,64,112,26-42.75,52-85.5c-.61-3.54-8.26-54,30.5-89.5,36.94-33.85,83.67-24.45,88-23.5a27.95,27.95,0,0,1,8,24,41.43,41.43,0,0,0,16.5-17c9.41-18.64-.32-37.69-2-41-11.1-21.73-34.21-26.83-37.5-27.5a132.82,132.82,0,0,0-21-18.5c-40.32-28.5-86.17-26.32-114-25a264.91,264.91,0,0,0-85,18.5l27.5,2.5a314.08,314.08,0,0,0-76.5,40.5l-47-85,320.5,1.5q-10.75,19.5-21.5,39a59.53,59.53,0,0,1,16.5,15.5l46.5-76-403-2.5Q123.09,113.85,162.59,181.85Z"/><text class="cls-2" transform="translate(22.89 377.93)">E<tspan class="cls-3" x="43.75" y="0">A</tspan><tspan x="85.59" y="0">G</tspan><tspan class="cls-4" x="132.07" y="0">L</tspan><tspan x="175.19" y="0">E</tspan></text><text class="cls-5" transform="translate(317.59 379.24)">CLUB</text></svg>