<svg id="Capa_1" data-name="Capa 1" xmlns="http://www.w3.org/2000/svg" xmlns:xlink="http://www.w3.org/1999/xlink" viewBox="0 0 553.09 444.79"><defs><style>.cls-1{fill:url(#linear-gradient);}.cls-10,.cls-11,.cls-12,.cls-2,.cls-3,.cls-5,.cls-8{fill:none;stroke-width:2px;}.cls-11,.cls-2,.cls-5{stroke:#e6e8ea;}.cls-12,.cls-3,.cls-8{stroke:#8b8c92;}.cls-4{fill:url(#linear-gradient-2);}.cls-5,.cls-8{font-size:56px;font-family:Revamped, Revamped;}.cls-6{letter-spacing:-0.03em;}.cls-7{letter-spacing:-0.01em;}.cls-9{fill:url(#linear-gradient-7);}.cls-10,.cls-11,.cls-12{font-size:74px;font-family:Microsoft-Yi-Baiti, Microsoft Yi Baiti;}.cls-10{stroke:#44585d;}</style><linearGradient id="linear-gradient" x1="311.52" y1="65.86" x2="311.52" y2="397.64" gradientUnits="userSpaceOnUse"><stop offset="0" stop-color="#ededec"/><stop offset="0" stop-color="#e5e5e4"/><stop offset="0.04" stop-color="#d6d7d6"/><stop offset="0.11" stop-color="#afb2b0"/><stop offset="0.2" stop-color="#717773"/><stop offset="0.26" stop-color="#474f4b"/><stop offset="0.3" stop-color="#646b68"/><stop offset="0.4" stop-color="#a6aaa8"/><stop offset="0.48" stop-color="#d6d8d7"/><stop offset="0.54" stop-color="#f4f4f4"/><stop offset="0.57" stop-color="#fff"/><stop offset="0.58" stop-color="#fcfcfc"/><stop offset="0.7" stop-color="#b0adab"/><stop offset="0.8" stop-color="#726d6b"/><stop offset="0.89" stop-color="#46403c"/><stop offset="0.96" stop-color="#2b2320"/><stop offset="1" stop-color="#211915"/></linearGradient><linearGradient id="linear-gradient-2" x1="164.06" y1="357.77" x2="164.06" y2="398.34" xlink:href="#linear-gradient"/><linearGradient id="linear-gradient-7" x1="426.78" y1="361.47" x2="426.78" y2="400.4" xlink:href="#linear-gradient"/></defs><title>LOGO EAGLE CLUB</title><path class="cls-1" d="M189,189.73a239.1,239.1,0,0,1,172.5-71.5l-23-8.5,16-.62c25.08-3.57,44,.33,55,3.62s33.75,10.09,35.5,23.5c.17,1.26.64,6.33-2.5,9.5-9.53,9.66-43.23-7.57-47-9.5-10.24-5.24-14.3-9-23-9.5s-16,2.65-21,5.5c4.76.85,8.67,1.77,11.5,2.5,8.47,2.17,9.76,3.24,10.5,4,3,3.06,1.58,5.62,5,9.5,2.41,2.72,6.22,5,7.5,4,1.67-1.28-1.33-7.66-1.5-8a61,61,0,0,0,23.5,4.5c-1.93,6.38-6.17,11-10.5,12.5a20.31,20.31,0,0,1-9.55.58l-.83-.17c-8.31-1.87-13.07-8.69-14-10-.26-.39-.67-1-1.14-1.87-4.16-2.19-5.51-2-6-1.5-1.33,1.39,1.57,7.41,6,11.5,5.16,4.76,10.74,5.38,10.5,6.5s-6.4,1-11.85.78c-2.14-.07-3.92-.19-5.15-.28a53.87,53.87,0,0,0,22.5,5c6.59,0,17.1,0,25.5-7.5a29.28,29.28,0,0,0,8-12,36.9,36.9,0,0,0,8.5,3.5c4.59,1.24,11.93,3.22,18.5-.5a18.2,18.2,0,0,0,7.5-8.5,33.59,33.59,0,0,1,18,9.5c6.05,6.31,11.94,17.83,8,24-3.61,5.67-14,4.48-28.5,3-37.24-3.81-45.13-6.76-62-5.5-8.52.63-22.92,1.71-36.62,9.88-27.31,16.29-33.45,49.8-34.86,59.33,2-5.85,10.52-28.93,34.5-41a66.82,66.82,0,0,1,28-7A197.85,197.85,0,0,0,305,341.44q-11.51-25-23-50c5.41-11.9,11.54-24.28,18.5-37a565.88,565.88,0,0,1,43-67,65,65,0,0,0-52,20,35.72,35.72,0,0,1,18-7,34.56,34.56,0,0,1,10.33.64Q296.09,228.67,272,259.23q-12.66,16.13-24.5,32,32,56,64,112,26-42.75,52-85.5c-.6-3.54-8.25-54,30.5-89.5,37-33.85,83.67-24.45,88-23.5a27.87,27.87,0,0,1,6.5,10,28.15,28.15,0,0,1,1.5,14,41.31,41.31,0,0,0,16.5-17c9.42-18.64-.31-37.7-2-41-11.09-21.73-34.2-26.83-37.5-27.5a131.91,131.91,0,0,0-21-18.5c-40.31-28.5-86.16-26.32-114-25a265,265,0,0,0-85,18.5l27.5,2.5a314.08,314.08,0,0,0-76.5,40.5l-47-85,320.5,1.5q-10.74,19.5-21.5,39a59.53,59.53,0,0,1,16.5,15.5l46.5-76-403-2.5Q149.53,121.73,189,189.73Z"/><path class="cls-2" d="M188,188.73a239.1,239.1,0,0,1,172.5-71.5l-23-8.5,16-.62c25.08-3.57,44,.33,55,3.62s33.75,10.09,35.5,23.5c.17,1.26.64,6.33-2.5,9.5-9.53,9.66-43.23-7.57-47-9.5-10.24-5.24-14.3-9-23-9.5s-16,2.65-21,5.5c4.76.85,8.67,1.77,11.5,2.5,8.47,2.17,9.76,3.24,10.5,4,3,3.06,1.58,5.62,5,9.5,2.41,2.72,6.22,5,7.5,4,1.67-1.28-1.33-7.66-1.5-8a61,61,0,0,0,23.5,4.5c-1.93,6.38-6.17,11-10.5,12.5a20.31,20.31,0,0,1-9.55.58l-.83-.17c-8.31-1.87-13.07-8.69-14-10-.26-.39-.67-1-1.14-1.87-4.16-2.19-5.51-2-6-1.5-1.33,1.39,1.57,7.41,6,11.5,5.16,4.76,10.74,5.38,10.5,6.5s-6.4,1-11.85.78c-2.14-.07-3.92-.19-5.15-.28a53.87,53.87,0,0,0,22.5,5c6.59,0,17.1,0,25.5-7.5a29.28,29.28,0,0,0,8-12,36.9,36.9,0,0,0,8.5,3.5c4.59,1.24,11.93,3.22,18.5-.5a18.2,18.2,0,0,0,7.5-8.5,33.59,33.59,0,0,1,18,9.5c6.05,6.31,11.94,17.83,8,24-3.61,5.67-14,4.48-28.5,3-37.24-3.81-45.13-6.76-62-5.5-8.52.63-22.92,1.71-36.62,9.88-27.31,16.29-33.45,49.8-34.86,59.33,2-5.85,10.52-28.93,34.5-41a66.82,66.82,0,0,1,28-7A197.85,197.85,0,0,0,304,340.44q-11.51-25-23-50c5.41-11.9,11.54-24.28,18.5-37a565.88,565.88,0,0,1,43-67,65,65,0,0,0-52,20,35.72,35.72,0,0,1,18-7,34.56,34.56,0,0,1,10.33.64Q295.09,227.67,271,258.23q-12.66,16.13-24.5,32,32,56,64,112,26-42.75,52-85.5c-.6-3.54-8.25-54,30.5-89.5,37-33.85,83.67-24.45,88-23.5a27.87,27.87,0,0,1,6.5,10,28.15,28.15,0,0,1,1.5,14,41.31,41.31,0,0,0,16.5-17c9.42-18.64-.31-37.7-2-41-11.09-21.73-34.2-26.83-37.5-27.5a131.91,131.91,0,0,0-21-18.5c-40.31-28.5-86.16-26.32-114-25a265,265,0,0,0-85,18.5l27.5,2.5a314.08,314.08,0,0,0-76.5,40.5l-47-85,320.5,1.5q-10.74,19.5-21.5,39a59.53,59.53,0,0,1,16.5,15.5l46.5-76-403-2.5Q148.53,120.73,188,188.73Z"/><path class="cls-3" d="M189,189.73a239.1,239.1,0,0,1,172.5-71.5l-23-8.5,16-.62c25.08-3.57,44,.33,55,3.62s33.75,10.09,35.5,23.5c.17,1.26.64,6.33-2.5,9.5-9.53,9.66-43.23-7.57-47-9.5-10.24-5.24-14.3-9-23-9.5s-16,2.65-21,5.5c4.76.85,8.67,1.77,11.5,2.5,8.47,2.17,9.76,3.24,10.5,4,3,3.06,1.58,5.62,5,9.5,2.41,2.72,6.22,5,7.5,4,1.67-1.28-1.33-7.66-1.5-8a61,61,0,0,0,23.5,4.5c-1.93,6.38-6.17,11-10.5,12.5a20.31,20.31,0,0,1-9.55.58l-.83-.17c-8.31-1.87-13.07-8.69-14-10-.26-.39-.67-1-1.14-1.87-4.16-2.19-5.51-2-6-1.5-1.33,1.39,1.57,7.41,6,11.5,5.16,4.76,10.74,5.38,10.5,6.5s-6.4,1-11.85.78c-2.14-.07-3.92-.19-5.15-.28a53.87,53.87,0,0,0,22.5,5c6.59,0,17.1,0,25.5-7.5a29.28,29.28,0,0,0,8-12,36.9,36.9,0,0,0,8.5,3.5c4.59,1.24,11.93,3.22,18.5-.5a18.2,18.2,0,0,0,7.5-8.5,33.59,33.59,0,0,1,18,9.5c6.05,6.31,11.94,17.83,8,24-3.61,5.67-14,4.48-28.5,3-37.24-3.81-45.13-6.76-62-5.5-8.52.63-22.92,1.71-36.62,9.88-27.31,16.29-33.45,49.8-34.86,59.33,2-5.85,10.52-28.93,34.5-41a66.82,66.82,0,0,1,28-7A197.85,197.85,0,0,0,305,341.44q-11.51-25-23-50c5.41-11.9,11.54-24.28,18.5-37a565.88,565.88,0,0,1,43-67,65,65,0,0,0-52,20,35.72,35.72,0,0,1,18-7,34.56,34.56,0,0,1,10.33.64Q296.09,228.67,272,259.23q-12.66,16.13-24.5,32,32,56,64,112,26-42.75,52-85.5c-.6-3.54-8.25-54,30.5-89.5,37-33.85,83.67-24.45,88-23.5a27.87,27.87,0,0,1,6.5,10,28.15,28.15,0,0,1,1.5,14,41.31,41.31,0,0,0,16.5-17c9.42-18.64-.31-37.7-2-41-11.09-21.73-34.2-26.83-37.5-27.5a131.91,131.91,0,0,0-21-18.5c-40.31-28.5-86.16-26.32-114-25a265,265,0,0,0-85,18.5l27.5,2.5a314.08,314.08,0,0,0-76.5,40.5l-47-85,320.5,1.5q-10.74,19.5-21.5,39a59.53,59.53,0,0,1,16.5,15.5l46.5-76-403-2.5Q149.53,121.73,189,189.73Z"/><path class="cls-4" d="M98.34,369H60.06l-5.47-8.2H98.34Zm-38.28,2.73H71v19.14H98.34V399H60.06Zm38.28,13.67H81.94l-8.21-8.2H98.34Z"/><path class="cls-4" d="M121.34,381.75,112.56,399H100.8l14.83-28.61Zm-4-14.55L123,356.29,145.1,399H133.34Z"/><path class="cls-4" d="M159.32,360.75h27.34V369H159.32a2.41,2.41,0,0,0-2.73,2.73v16.41a2.41,2.41,0,0,0,2.73,2.73H173V399H159.32q-13.66,0-13.67-10.94V371.68Q145.65,360.75,159.32,360.75ZM186.66,399H175.73V385.35h-8.21l-5.47-8.2h24.61Z"/><path class="cls-4" d="M203.07,388.09H192.13V360.75h10.94Zm-10.94,2.73h38.28V399H192.13Z"/><path class="cls-4" d="M273.54,369H235.25l-5.46-8.2h43.75Zm-38.29,2.73h10.94v19.14h27.35V399H235.25Zm38.29,13.67H257.13l-8.2-8.2h24.61Z"/><text class="cls-5" transform="translate(56.33 398.03)">E<tspan class="cls-6" x="43.75" y="0">A</tspan><tspan x="85.59" y="0">G</tspan><tspan class="cls-7" x="132.07" y="0">L</tspan><tspan x="175.19" y="0">E</tspan></text><text class="cls-8" transform="translate(57.33 399.03)">E<tspan class="cls-6" x="43.75" y="0">A</tspan><tspan x="85.59" y="0">G</tspan><tspan class="cls-7" x="132.07" y="0">L</tspan><tspan x="175.19" y="0">E</tspan></text><path class="cls-9" d="M385.92,371.36a9.29,9.29,0,0,0-1.48-3.31,11.1,11.1,0,0,0-2.71-2.67,13.22,13.22,0,0,0-3.74-1.79,15.15,15.15,0,0,0-4.54-.65,16.57,16.57,0,0,0-6.23,1.12,12.59,12.59,0,0,0-4.77,3.3,15,15,0,0,0-3,5.46,24.56,24.56,0,0,0-1.06,7.6,25,25,0,0,0,1.06,7.65,15.48,15.48,0,0,0,3,5.54,12.71,12.71,0,0,0,4.73,3.4,15.87,15.87,0,0,0,6.16,1.16,14.58,14.58,0,0,0,8.46-2.3,9.9,9.9,0,0,0,4.12-6.7h3a13.74,13.74,0,0,1-1.77,5,13.26,13.26,0,0,1-3.36,3.74,14.89,14.89,0,0,1-4.67,2.31,19.63,19.63,0,0,1-5.7.8,18.54,18.54,0,0,1-7.54-1.47,16,16,0,0,1-5.69-4.13,18.67,18.67,0,0,1-3.61-6.49,26.85,26.85,0,0,1-1.27-8.55,26.22,26.22,0,0,1,1.27-8.45,18.11,18.11,0,0,1,3.63-6.41,15.93,15.93,0,0,1,5.71-4.09,18.92,18.92,0,0,1,7.5-1.42,17.42,17.42,0,0,1,5.43.83,16.23,16.23,0,0,1,4.65,2.33,14.39,14.39,0,0,1,3.47,3.58,13.2,13.2,0,0,1,1.95,4.57Z"/><path class="cls-9" d="M421.15,400.33H397.84V360.77h2.89v36.67h20.42Z"/><path class="cls-9" d="M444.09,401.06a21.7,21.7,0,0,1-6-.74,12.86,12.86,0,0,1-4.17-2,9.87,9.87,0,0,1-2.64-3,14.51,14.51,0,0,1-1.48-3.62,20.56,20.56,0,0,1-.64-4c-.08-1.37-.12-2.71-.12-4v-23h2.89v22.87a27.45,27.45,0,0,0,.81,7.35,10.13,10.13,0,0,0,2.39,4.43,8.08,8.08,0,0,0,3.83,2.17,21.18,21.18,0,0,0,5.18.58,21.87,21.87,0,0,0,5.26-.58,7.89,7.89,0,0,0,3.83-2.19,10.42,10.42,0,0,0,2.33-4.42,27.84,27.84,0,0,0,.79-7.34V360.77h2.89v23a35.07,35.07,0,0,1-.68,7.3,13.46,13.46,0,0,1-2.39,5.44,10.62,10.62,0,0,1-4.62,3.39A19.9,19.9,0,0,1,444.09,401.06Z"/><path class="cls-9" d="M498.25,389.24q0,5.38-3.63,8.24T484,400.33H469.56V360.77h14.31q6,0,9.13,2.26c2.1,1.5,3.16,3.91,3.16,7.21a15.55,15.55,0,0,1-.27,2.83,8.37,8.37,0,0,1-1,2.73,7.8,7.8,0,0,1-2,2.26,8,8,0,0,1-3.26,1.43,10.91,10.91,0,0,1,4.47,1.21,7.48,7.48,0,0,1,2.6,2.33,8.12,8.12,0,0,1,1.23,3A17.91,17.91,0,0,1,498.25,389.24Zm-25.79-11.09h10.62q5.26,0,7.77-1.7t2.49-5.71a6.28,6.28,0,0,0-2.31-5.36q-2.31-1.75-7.41-1.76l-11.16,0Zm0,19.29h11.45q11.2,0,11.2-8.2a10.41,10.41,0,0,0-.58-3.68,5.31,5.31,0,0,0-2-2.55,9.69,9.69,0,0,0-3.68-1.48,28.05,28.05,0,0,0-5.77-.49H472.46Z"/><text class="cls-10" transform="translate(353.02 401.33)">CLUB</text><text class="cls-11" transform="translate(351.02 399.33)">CLUB</text><text class="cls-12" transform="translate(352.02 400.33)">CLUB</text></svg>